<svg version="1.1" id="Layer_1" xmlns="http://www.w3.org/2000/svg" x="0" y="0" viewBox="0 0 26 29" xml:space="preserve"><style>.st0{fill:none}</style><path class="st0" d="M11.3 18.4l-5.2-1.7c-.2-.1-.5 0-.7.1-.2.2-.2.4-.2.6l1.7 5c.1.3.3.4.6.4h.2c.3-.1.5-.4.4-.8l-.3-.9 2-1.9.9.3c.3.1.7-.1.8-.4.3-.2.1-.5-.2-.7zM15.4 12.6c1 0 2-.4 2.6-1.2.2-.3.2-.6-.1-.9-.3-.2-.7-.2-.9.1-.4.5-1 .7-1.7.7-1.2 0-2.2-.9-2.2-2.1 0-1.2 1-2.1 2.2-2.1.6 0 1.1.2 1.6.6.2.2.7.2.9 0 .2-.2.2-.6 0-.9-.7-.6-1.5-1-2.5-1-1.9 0-3.5 1.5-3.5 3.3.1 2 1.7 3.5 3.6 3.5zM21.1 19.6c.1-.2.2-.5.2-.8 0-1-.8-1.8-1.9-1.8h-1.7c-.4 0-.7.3-.7.6v4.7c0 .3.3.6.7.6H20c1 0 1.9-.8 1.9-1.8 0-.6-.3-1.1-.8-1.5zM10.4 14.4l2.9 2.7c.4.4.7.8.7 1.3v-1c0-1.4 1.3-2.6 2.8-2.6H12c-.6.1-1.1-.1-1.6-.4z"/><path d="M22.2 14.9h-4.1c1.5 0 2.7-1.2 2.7-2.6V6.4c0-1.4-1.2-2.6-2.7-2.6H12c-1.5 0-2.8 1.1-2.8 2.6v5.9c0 .5.2 1 .5 1.4l-.1-.1c-.5-.5-1.2-.8-1.9-.8s-1.4.3-1.9.8L2 17.2c-1.1 1-1.1 2.7 0 3.7l3.8 3.6c.5.5 1.2.8 1.9.8s1.4-.3 1.9-.8l3.8-3.6c.4-.4.6-.8.7-1.3v3c0 1.4 1.3 2.6 2.8 2.6h5.4c1.5 0 2.7-1.2 2.7-2.6v-5.1c-.1-1.5-1.3-2.6-2.8-2.6zM15.4 6c.9 0 1.8.3 2.5 1 .3.2.3.6 0 .9-.2.2-.7.2-.9 0-.4-.4-1-.6-1.6-.6-1.2 0-2.2.9-2.2 2.1 0 1.2 1 2.1 2.2 2.1.6 0 1.3-.3 1.7-.7.2-.3.6-.3.9-.1.3.2.3.6.1.9-.7.7-1.6 1.2-2.6 1.2-1.9 0-3.5-1.5-3.5-3.3-.1-2 1.5-3.5 3.4-3.5zm-3.7 13.2c-.1.3-.5.5-.8.4l-.9-.3-2 1.9.3.9c.1.3-.1.7-.4.8h-.2c-.3 0-.5-.2-.6-.4l-1.7-5c-.1-.2 0-.5.2-.6.2-.2.4-.2.7-.1l5.2 1.7c.1.1.3.4.2.7zm2.4-1.8v1c-.1-.5-.3-.9-.7-1.3l-2.9-2.7c.4.3 1 .4 1.5.4h4.9c-1.6.1-2.8 1.2-2.8 2.6zM20 23h-2.3c-.4 0-.7-.3-.7-.6v-4.7c0-.3.3-.6.7-.6h1.7c1 0 1.9.8 1.9 1.8 0 .3-.1.5-.2.8.5.3.8.9.8 1.5 0 1-.9 1.8-1.9 1.8z" fill="#ff7d56"/></svg>