<svg version="1.1" id="Layer_1" xmlns="http://www.w3.org/2000/svg" x="0" y="0" viewBox="0 0 32 32" xml:space="preserve"><style>.st0{fill:none}</style><path class="st0" d="M13.8 21l-6.6-2.2c-.3-.1-.6 0-.8.2-.2.2-.3.5-.2.8l2.2 6.4c.1.3.4.5.8.5h.3c.4-.1.7-.6.5-1l-.4-1.2 2.6-2.5 1.2.4c.4.1.9-.1 1-.5.1-.3-.1-.7-.6-.9zM19.1 13.6c1.3 0 2.5-.5 3.4-1.5.3-.3.3-.8-.1-1.1-.3-.3-.9-.2-1.1.1-.5.6-1.3.9-2.1.9-1.6 0-2.8-1.2-2.8-2.7 0-1.5 1.3-2.7 2.8-2.7.7 0 1.4.3 2 .8.3.3.8.3 1.1 0 .3-.3.3-.8 0-1.1-.8-.8-1.9-1.2-3.1-1.2-2.5 0-4.5 1.9-4.4 4.2-.2 2.4 1.8 4.3 4.3 4.3zM26.3 22.5c.1-.3.2-.6.2-1 0-1.3-1.1-2.3-2.4-2.3H22c-.4 0-.8.3-.8.7v6c0 .4.4.8.8.8h3c1.3 0 2.4-1 2.4-2.3-.1-.7-.5-1.5-1.1-1.9zM12.7 15.9l3.7 3.5c.5.5.8 1.1.9 1.7v-1.3c0-1.8 1.6-3.3 3.5-3.3h-6.2c-.7 0-1.3-.2-1.9-.6z"/><path d="M27.7 16.5h-5.2c1.9 0 3.4-1.5 3.4-3.3V5.6c0-1.8-1.5-3.3-3.4-3.3h-7.9c-1.9 0-3.5 1.5-3.5 3.3v7.5c0 .7.2 1.3.6 1.8l-.1-.1c-.7-.6-1.5-1-2.5-1-.9 0-1.8.3-2.5 1l-4.8 4.6c-1.4 1.3-1.4 3.4 0 4.7l4.8 4.6c.7.6 1.5 1 2.5 1 .9 0 1.8-.3 2.5-1l4.8-4.6c.5-.5.8-1.1.9-1.7v3.9c0 1.8 1.6 3.3 3.5 3.3h6.9c1.9 0 3.4-1.5 3.4-3.3v-6.5c.1-1.9-1.5-3.3-3.4-3.3zM19 5.1c1.2 0 2.3.4 3.1 1.2.3.3.3.8 0 1.1-.3.3-.8.3-1.1 0-.5-.5-1.2-.8-2-.8-1.6 0-2.8 1.2-2.8 2.7 0 1.5 1.3 2.7 2.8 2.7.8 0 1.6-.3 2.1-.9.3-.3.8-.4 1.1-.1.3.3.4.8.1 1.1-.8.9-2.1 1.5-3.4 1.5-2.5 0-4.4-1.9-4.4-4.2.1-2.4 2.1-4.3 4.5-4.3zM14.4 22c-.1.4-.6.6-1 .5l-1.2-.4-2.6 2.5.4 1.2c.1.4-.1.8-.5 1h-.3c-.3 0-.7-.2-.8-.5l-2.2-6.4c-.1-.3 0-.6.2-.8.2-.2.5-.3.8-.2l6.6 2.2c.5.1.7.5.6.9zm2.9-2.2v1.3c-.1-.6-.4-1.2-.9-1.7l-3.7-3.5c.6.4 1.2.6 1.9.6h6.2c-1.9 0-3.5 1.4-3.5 3.3zm7.6 7h-3c-.4 0-.8-.4-.8-.8v-6c0-.4.4-.7.8-.7H24c1.3 0 2.4 1 2.4 2.3 0 .3-.1.7-.2 1 .6.4 1.1 1.1 1.1 1.9 0 1.3-1 2.3-2.4 2.3z" fill="#ff7d56"/></svg>