<svg xmlns="http://www.w3.org/2000/svg" viewBox="0 0 22 22"><path d="M11 22c-1.3 0-2.6-.2-3.8-.7C5 20.5 3.1 19 1.8 17 .5 15-.1 12.6.1 10.3c.2-2.4 1.1-4.6 2.6-6.4C4.2 2.1 6.3.8 8.6.3c2.3-.5 4.7-.3 6.9.7.5.2.7.8.5 1.3-.2.5-.8.7-1.3.5-1.8-.8-3.8-1-5.7-.6-1.9.4-3.6 1.5-4.8 3-1.3 1.5-2 3.3-2.1 5.3-.1 1.9.4 3.9 1.4 5.5 1 1.6 2.6 2.9 4.4 3.5 1.8.7 3.8.7 5.7.2 1.8-.5 3.5-1.7 4.7-3.2 1.2-1.5 1.8-3.5 1.8-5.4v-.9c0-.6.4-1 1-1s1 .4 1 1v.8c0 2.4-.8 4.7-2.2 6.6-1.4 1.9-3.4 3.3-5.7 4-1.1.2-2.1.4-3.2.4z"/><path d="M11 14c-.3 0-.5-.1-.7-.3l-3-3c-.4-.4-.4-1 0-1.4s1-.4 1.4 0l2.3 2.3 9.3-9.3c.4-.4 1-.4 1.4 0 .4.4.4 1 0 1.4l-10 10c-.2.2-.4.3-.7.3z"/></svg>