<svg xmlns="http://www.w3.org/2000/svg" viewBox="0 0 46 46" xml:space="preserve"><path d="M45.9 13.5c-.1-2.4-.5-4.1-1.1-5.6S43.3 5 42.1 3.8C41 2.6 39.6 1.7 38 1.1 36.5.5 34.9.1 32.4 0H23c-6.2 0-7 0-9.5.1-2.4.1-4.1.5-5.6 1.1S5 2.7 3.9 3.9C2.7 5 1.8 6.4 1.2 7.9S.2 11 .1 13.5 0 16.8 0 23s0 7 .1 9.5c.1 2.4.5 4.1 1.1 5.6s1.5 2.9 2.7 4.1C5 43.4 6.4 44.3 8 44.9c1.5.6 3.1 1 5.6 1.1H23c6.2 0 7 0 9.5-.1 2.4-.1 4.1-.5 5.6-1.1 3.1-1.2 5.5-3.6 6.7-6.7.6-1.5 1-3.1 1.1-5.6.1-2.5.1-3.3.1-9.5s0-7-.1-9.5zm-4.2 18.8c-.1 2.2-.5 3.5-.8 4.3-.8 2-2.4 3.6-4.4 4.4-.8.3-2 .7-4.3.8-2.4.1-3.2.1-9.3.1s-6.9 0-9.3-.1c-2.2-.1-3.5-.5-4.3-.8-1-.4-1.9-1-2.6-1.7-.8-.7-1.4-1.6-1.7-2.6-.3-.8-.7-2-.8-4.3-.1-2.4-.1-3.2-.1-9.3s0-6.9.1-9.3c.1-2.2.5-3.5.8-4.3.4-1 1-1.9 1.7-2.6.8-.9 1.7-1.5 2.7-1.8.8-.3 2-.7 4.3-.8 2.4-.1 3.2-.1 9.3-.1s6.9 0 9.3.1c2.2.1 3.5.5 4.3.8 1 .4 1.9 1 2.6 1.7.8.7 1.4 1.6 1.7 2.6.3.8.7 2 .8 4.3.1 2.4.1 3.2.1 9.3.1 6.1 0 6.9-.1 9.3z"/><path d="M23 11.2c-6.5 0-11.8 5.3-11.8 11.8S16.5 34.8 23 34.8 34.8 29.5 34.8 23 29.5 11.2 23 11.2zm0 19.5c-4.2 0-7.7-3.4-7.7-7.7 0-4.2 3.4-7.7 7.7-7.7 4.2 0 7.7 3.4 7.7 7.7 0 4.2-3.5 7.7-7.7 7.7zM35.3 8c-1.5 0-2.8 1.2-2.8 2.8 0 1.5 1.2 2.8 2.8 2.8 1.5 0 2.8-1.2 2.8-2.8C38 9.2 36.8 8 35.3 8z"/></svg>