<svg viewBox="0 0 36 34" xmlns="http://www.w3.org/2000/svg"><path d="M35.51 14.573a3.873 3.873 0 0 1-1.093.779.643.643 0 0 1-.546-1.165A2.571 2.571 0 1 0 31.242 9.8a.643.643 0 0 1-.77-1.029 3.823 3.823 0 0 1 1.565-.692 7.114 7.114 0 0 0-6.966-5.865h-.057c.037.213.056.428.057.643a.643.643 0 1 1-1.285.05A2.675 2.675 0 0 0 22.379.543a2.59 2.59 0 0 0-3.736 2.314.643.643 0 0 1-1.286 0c0-.525.108-1.045.317-1.527a5.444 5.444 0 0 0-3.21-1.044 5.511 5.511 0 0 0-4.707 2.676 5.442 5.442 0 0 0-.578 1.395.643.643 0 1 1-1.245-.325c.097-.359.224-.709.378-1.046a3.501 3.501 0 0 0-.92-.129 3.54 3.54 0 0 0-3.519 3.215c1.211 0 2.35.576 3.07 1.55a.643.643 0 1 1-1.029.771 2.545 2.545 0 0 0-2.057-1.036 2.571 2.571 0 0 0-1.322 4.776.643.643 0 0 1-.662 1.103 3.846 3.846 0 0 1-1.089-.993 6.75 6.75 0 0 0 7.734 9.665c-.105-.45-.16-.91-.16-1.372 0-.109.015-.216.021-.322h-.022A3.218 3.218 0 0 1 5.143 17c0-.357.285-.65.643-.656a.632.632 0 0 1 .643.63V17a1.928 1.928 0 0 0 2.142 1.917l.006-.004a6.075 6.075 0 0 1 .65-1.52.643.643 0 1 1 1.102.663 4.792 4.792 0 0 0-.42 4.05v.003a4.818 4.818 0 0 0 8.208 1.577.707.707 0 0 1 .72-.179 8.1 8.1 0 0 0 3.61.544 8.282 8.282 0 0 0 1.87-.343.643.643 0 1 1 .376 1.229 9.583 9.583 0 0 1-2.143.396h-.035c.094 1.807.73 2.81 4.045 3.915a5.95 5.95 0 0 1 4.118 4.016c.082.27.333.454.615.45h.771a.643.643 0 0 0 .643-.707c-.171-1.694-.694-4.549-2.272-6.207a8.22 8.22 0 0 1-1.418.364.643.643 0 1 1-.204-1.27 7.016 7.016 0 0 0 5.152-3.796 6.028 6.028 0 0 1-5.553.015 5.841 5.841 0 0 1-1.336-.924 3.196 3.196 0 0 1-4.233-1.468.643.643 0 1 1 1.15-.579 1.929 1.929 0 1 0 3.451-1.724.644.644 0 0 1 1.15-.579 3.207 3.207 0 0 1-.456 3.55c.264.222.551.414.857.572a4.703 4.703 0 0 0 2.184.54 4.845 4.845 0 0 0 3.568-1.585l.015-.015c.345-.358.624-.774.824-1.23a4.87 4.87 0 0 0-.076-4.098Z"/></svg>