<svg viewBox="0 0 36 35" xmlns="http://www.w3.org/2000/svg"><path d="m36.086 27.978-4.194-1.05-2.296-3.657-2.297 3.657-3.428.858-3.428-.858-2.296-3.657-2.296 3.657-3.428.858-3.428-.858-2.296-3.657-2.296 3.657-4.194 1.05 2.774 3.31-.295 4.306 4.01-1.611 4.012 1.611-.296-4.306 2.009-2.396 2.009 2.396-.296 4.306 4.011-1.611 4.011 1.611-.296-4.306 2.01-2.396 2.008 2.396-.296 4.306 4.012-1.611 4.01 1.611-.295-4.306 2.775-3.31ZM27.363 15.1a10.665 10.665 0 0 1 1.53 5.51v1.102h7.286V15.1h-8.816Zm-5.539-2.181a6.794 6.794 0 0 0 3.131-5.717c0-3.748-3.054-6.796-6.808-6.796S11.34 3.454 11.34 7.202a6.793 6.793 0 0 0 3.131 5.717c-2.872 1.374-4.86 4.305-4.86 7.69v1.103h17.075V20.61c0-3.386-1.989-6.317-4.861-7.691ZM.115 15.1v6.612H7.4V20.61c0-1.95.529-3.847 1.53-5.51H.115Z"/></svg>