<svg viewBox="0 0 36 36" xmlns="http://www.w3.org/2000/svg"><path d="M3.164 12.724h-2.11a1.054 1.054 0 1 0 0 2.11h2.11a1.054 1.054 0 1 0 0-2.11ZM3.671 7.45 2.18 5.96A1.054 1.054 0 1 0 .688 7.45L2.18 8.942A1.054 1.054 0 1 0 3.67 7.451ZM3.671 18.616a1.054 1.054 0 0 0-1.491 0L.688 20.108a1.054 1.054 0 1 0 1.492 1.49l1.491-1.49a1.054 1.054 0 0 0 0-1.492ZM34.945 12.724h-2.11a1.054 1.054 0 1 0 0 2.11h2.11a1.054 1.054 0 1 0 0-2.11ZM35.312 5.96a1.054 1.054 0 0 0-1.492 0L32.33 7.45a1.054 1.054 0 1 0 1.491 1.492l1.492-1.492a1.054 1.054 0 0 0 0-1.491ZM35.312 20.107l-1.492-1.491a1.054 1.054 0 1 0-1.491 1.491L33.82 21.6a1.054 1.054 0 1 0 1.492-1.492ZM25.977 2.828C23.003.41 19.1-.522 15.282.282c-4.76.994-8.637 4.929-9.647 9.687-.858 4.05.201 8.113 2.904 11.152a8.11 8.11 0 0 1 1.978 4.26h3.264v-9.492c0-.409 3.093-6.435 3.276-6.8.358-.715 1.528-.715 1.887 0 .19.382 3.275 6.412 3.275 6.8v9.492h3.268c.226-1.54.912-3.047 2.036-4.33a12.625 12.625 0 0 0 3.133-8.326c0-3.829-1.705-7.48-4.679-9.897Z"/><path d="M18 17.905a6.723 6.723 0 0 1-2.11-.35v7.826h4.22v-7.827a6.723 6.723 0 0 1-2.11.351ZM10.617 27.49v1.055a3.168 3.168 0 0 0 3.164 3.164h8.438a3.168 3.168 0 0 0 3.164-3.164V27.49H10.617ZM18 11.92l-1.743 3.485a4.561 4.561 0 0 0 3.486 0L18 11.92ZM12.92 33.818c.438 1.225 1.597 2.18 2.97 2.18h4.22c1.373 0 2.532-.955 2.97-2.18H12.92Z"/></svg>