<svg viewBox="0 0 40 38" xmlns="http://www.w3.org/2000/svg"><path d="M35.447 19.58h-6.839c2.535 0 4.552-2.098 4.552-4.632V4.562A4.534 4.534 0 0 0 28.608 0H18.223c-2.535 0-4.642 2.027-4.642 4.562v10.385c0 .942.307 1.817.794 2.547l-.184-.196a4.553 4.553 0 0 0-3.245-1.342c-1.23 0-2.382.477-3.248 1.342l-6.354 6.356a4.602 4.602 0 0 0 0 6.501l6.357 6.356a4.566 4.566 0 0 0 3.25 1.342 4.566 4.566 0 0 0 3.251-1.342l6.334-6.356c.657-.658 1.091-1.467 1.226-2.317v5.348c0 2.535 2.106 4.632 4.641 4.632h9.044c2.535 0 4.553-2.097 4.553-4.632v-9.044a4.534 4.534 0 0 0-4.553-4.562ZM23.991 3.824c1.552 0 3.015.6 4.12 1.69a1.073 1.073 0 0 1-1.506 1.528 3.701 3.701 0 0 0-2.614-1.073 3.726 3.726 0 0 0-3.722 3.723 3.726 3.726 0 0 0 3.722 3.722 3.72 3.72 0 0 0 2.827-1.3 1.073 1.073 0 1 1 1.629 1.396 5.862 5.862 0 0 1-4.456 2.05 5.875 5.875 0 0 1-5.868-5.868 5.875 5.875 0 0 1 5.868-5.868Zm-6.187 23.452c-.193.56-.803.858-1.363.665l-1.582-.545-3.397 3.397.53 1.615a1.073 1.073 0 1 1-2.038.67l-2.9-8.82a1.073 1.073 0 0 1 1.368-1.349l8.717 3.003c.56.193.858.804.665 1.364Zm3.958-3.134v1.829c-.135-.85-.569-1.66-1.226-2.317l-4.87-4.864a4.62 4.62 0 0 0 2.557.79h8.18c-2.535 0-4.641 2.027-4.641 4.562Zm10.014 9.787h-3.935c-.593 0-1.118-.516-1.118-1.108v-8.315c0-.592.525-1.037 1.118-1.037h2.822a3.175 3.175 0 0 1 2.862 4.534 3.256 3.256 0 0 1 1.417 2.695c0 1.774-1.42 3.231-3.166 3.231Z"/></svg>