<svg width="130" height="34" viewBox="0 0 130 34" fill="none" xmlns="http://www.w3.org/2000/svg">
<path d="M56.3769 22.1236C56.1687 22.2949 55.8965 22.435 55.5602 22.544C55.2399 22.6374 54.8636 22.6841 54.4312 22.6841C53.8547 22.6841 53.3743 22.614 52.99 22.4739C52.6217 22.3338 52.3815 22.0925 52.2694 21.75C51.821 20.38 51.4527 19.2747 51.1644 18.4341C50.8762 17.5778 50.652 16.8306 50.4918 16.1923H50.3717C50.3237 17.1108 50.2837 17.9515 50.2516 18.7143C50.2356 19.4615 50.2196 20.1932 50.2036 20.9093C50.2036 21.6255 50.1876 22.3494 50.1556 23.081C50.1395 23.8127 50.1075 24.6223 50.0595 25.5096C49.8513 25.5875 49.5791 25.6497 49.2428 25.6964C48.9065 25.7587 48.5702 25.7898 48.2339 25.7898C47.5293 25.7898 46.9768 25.6809 46.5765 25.4629C46.1922 25.245 46 24.848 46 24.272L46.6966 12.3626C46.8247 12.1603 47.1049 11.9423 47.5373 11.7088C47.9697 11.4753 48.5782 11.3585 49.3629 11.3585C50.2116 11.3585 50.8762 11.4908 51.3566 11.7555C51.837 12.0046 52.1893 12.4171 52.4135 12.9931C52.5576 13.3668 52.7097 13.7949 52.8699 14.2775C53.046 14.7601 53.2142 15.2582 53.3743 15.772C53.5505 16.2857 53.7186 16.7995 53.8787 17.3132C54.0389 17.8114 54.183 18.2628 54.3111 18.6676H54.4312C54.8155 17.3599 55.1999 16.0989 55.5842 14.8846C55.9685 13.6548 56.3208 12.6273 56.6411 11.8022C56.8813 11.6777 57.1856 11.5765 57.5539 11.4986C57.9382 11.4052 58.3626 11.3585 58.827 11.3585C59.6116 11.3585 60.2522 11.4753 60.7486 11.7088C61.245 11.9267 61.5333 12.2459 61.6133 12.6662C61.6774 12.9776 61.7415 13.4602 61.8055 14.114C61.8856 14.7523 61.9657 15.4762 62.0457 16.2857C62.1258 17.0952 62.2059 17.9515 62.2859 18.8544C62.366 19.7573 62.4381 20.6291 62.5021 21.4698C62.5822 22.2949 62.6462 23.0577 62.6943 23.7582C62.7423 24.4432 62.7743 24.9725 62.7904 25.3462C62.5181 25.5018 62.2299 25.6108 61.9256 25.6731C61.6374 25.7509 61.261 25.7898 60.7967 25.7898C60.1881 25.7898 59.6757 25.6886 59.2593 25.4863C58.843 25.2839 58.6188 24.8869 58.5868 24.2953C58.4907 22.5984 58.4266 21.0728 58.3946 19.7184C58.3786 18.364 58.3466 17.2276 58.2985 16.3091H58.1784C58.0183 16.9162 57.7861 17.679 57.4818 18.5975C57.1776 19.516 56.8092 20.6914 56.3769 22.1236Z" fill="#25334E"/>
<path d="M70.1376 23.081C70.4099 23.081 70.7061 23.0577 71.0264 23.011C71.3627 22.9487 71.6109 22.8709 71.771 22.7775V20.9093L70.0416 21.0494C69.5932 21.0806 69.2249 21.174 68.9366 21.3297C68.6484 21.4853 68.5042 21.7189 68.5042 22.0302C68.5042 22.3416 68.6243 22.5984 68.8645 22.8008C69.1208 22.9876 69.5451 23.081 70.1376 23.081ZM69.9455 13.9038C70.8102 13.9038 71.5949 13.9895 72.2995 14.1607C73.0201 14.332 73.6286 14.5966 74.125 14.9547C74.6375 15.2972 75.0298 15.7408 75.302 16.2857C75.5743 16.815 75.7104 17.4455 75.7104 18.1772V23.408C75.7104 23.8127 75.5903 24.1474 75.3501 24.4121C75.1259 24.6612 74.8537 24.8791 74.5334 25.0659C73.4925 25.6731 72.0273 25.9766 70.1376 25.9766C69.2889 25.9766 68.5203 25.8988 67.8317 25.7431C67.1591 25.5875 66.5746 25.3539 66.0782 25.0426C65.5978 24.7312 65.2214 24.3342 64.9492 23.8516C64.693 23.369 64.5649 22.8086 64.5649 22.1703C64.5649 21.0962 64.8932 20.2711 65.5497 19.6951C66.2063 19.119 67.2231 18.761 68.6003 18.6209L71.747 18.294V18.1305C71.747 17.679 71.5388 17.3599 71.1225 17.1731C70.7221 16.9707 70.1376 16.8695 69.369 16.8695C68.7605 16.8695 68.168 16.9318 67.5915 17.0563C67.015 17.1809 66.4945 17.3365 66.0301 17.5234C65.8219 17.3832 65.6458 17.1731 65.5017 16.8929C65.3575 16.5971 65.2855 16.2935 65.2855 15.9821C65.2855 15.5774 65.3816 15.2582 65.5737 15.0247C65.7819 14.7756 66.0942 14.5655 66.5105 14.3942C66.9749 14.223 67.5194 14.0984 68.1439 14.0206C68.7845 13.9428 69.385 13.9038 69.9455 13.9038Z" fill="#25334E"/>
<path d="M78.1111 11.1016C78.1111 10.5101 78.3113 10.0119 78.7117 9.60714C79.128 9.20238 79.6725 9 80.3451 9C81.0176 9 81.5541 9.20238 81.9544 9.60714C82.3708 10.0119 82.579 10.5101 82.579 11.1016C82.579 11.6932 82.3708 12.1914 81.9544 12.5962C81.5541 13.0009 81.0176 13.2033 80.3451 13.2033C79.6725 13.2033 79.128 13.0009 78.7117 12.5962C78.3113 12.1914 78.1111 11.6932 78.1111 11.1016ZM82.3868 25.5797C82.2106 25.6108 81.9464 25.6497 81.5941 25.6964C81.2578 25.7587 80.9135 25.7898 80.5612 25.7898C80.2089 25.7898 79.8887 25.7665 79.6004 25.7198C79.3282 25.6731 79.096 25.5797 78.9038 25.4396C78.7117 25.2995 78.5595 25.1126 78.4474 24.8791C78.3513 24.63 78.3033 24.3109 78.3033 23.9217V14.4176C78.4795 14.3864 78.7357 14.3475 79.072 14.3008C79.4243 14.2386 79.7766 14.2074 80.1289 14.2074C80.4812 14.2074 80.7934 14.2308 81.0657 14.2775C81.3539 14.3242 81.5941 14.4176 81.7863 14.5577C81.9784 14.6978 82.1226 14.8924 82.2187 15.1415C82.3307 15.375 82.3868 15.6864 82.3868 16.0755V25.5797Z" fill="#25334E"/>
<path d="M92.3848 18.4107C92.3848 17.9281 92.2407 17.5778 91.9524 17.3599C91.6802 17.1264 91.3039 17.0096 90.8234 17.0096C90.5032 17.0096 90.1829 17.0485 89.8626 17.1264C89.5584 17.2042 89.2941 17.321 89.0699 17.4766V25.5797C88.9098 25.6264 88.6536 25.6731 88.3013 25.7198C87.965 25.7665 87.6127 25.7898 87.2444 25.7898C86.8921 25.7898 86.5718 25.7665 86.2836 25.7198C86.0113 25.6731 85.7791 25.5797 85.587 25.4396C85.3948 25.2995 85.2427 25.1126 85.1306 24.8791C85.0345 24.63 84.9865 24.3109 84.9865 23.9217V16.9162C84.9865 16.4959 85.0745 16.1534 85.2507 15.8887C85.4428 15.6241 85.6991 15.3828 86.0193 15.1648C86.5638 14.7912 87.2444 14.4876 88.0611 14.2541C88.8938 14.0206 89.8146 13.9038 90.8234 13.9038C92.633 13.9038 94.0262 14.293 95.003 15.0714C95.9799 15.8342 96.4683 16.9006 96.4683 18.2706V25.5797C96.3081 25.6264 96.0519 25.6731 95.6996 25.7198C95.3633 25.7665 95.011 25.7898 94.6427 25.7898C94.2904 25.7898 93.9701 25.7665 93.6819 25.7198C93.4097 25.6731 93.1775 25.5797 92.9853 25.4396C92.7931 25.2995 92.641 25.1126 92.5289 24.8791C92.4328 24.63 92.3848 24.3109 92.3848 23.9217V18.4107Z" fill="#25334E"/>
<path d="M103.987 23.081C104.259 23.081 104.555 23.0577 104.876 23.011C105.212 22.9487 105.46 22.8709 105.62 22.7775V20.9093L103.891 21.0494C103.442 21.0806 103.074 21.174 102.786 21.3297C102.498 21.4853 102.353 21.7189 102.353 22.0302C102.353 22.3416 102.474 22.5984 102.714 22.8008C102.97 22.9876 103.394 23.081 103.987 23.081ZM103.795 13.9038C104.659 13.9038 105.444 13.9895 106.149 14.1607C106.869 14.332 107.478 14.5966 107.974 14.9547C108.487 15.2972 108.879 15.7408 109.151 16.2857C109.424 16.815 109.56 17.4455 109.56 18.1772V23.408C109.56 23.8127 109.44 24.1474 109.199 24.4121C108.975 24.6612 108.703 24.8791 108.383 25.0659C107.342 25.6731 105.877 25.9766 103.987 25.9766C103.138 25.9766 102.37 25.8988 101.681 25.7431C101.008 25.5875 100.424 25.3539 99.9274 25.0426C99.447 24.7312 99.0707 24.3342 98.7985 23.8516C98.5422 23.369 98.4141 22.8086 98.4141 22.1703C98.4141 21.0962 98.7424 20.2711 99.399 19.6951C100.056 19.119 101.072 18.761 102.45 18.6209L105.596 18.294V18.1305C105.596 17.679 105.388 17.3599 104.972 17.1731C104.571 16.9707 103.987 16.8695 103.218 16.8695C102.61 16.8695 102.017 16.9318 101.441 17.0563C100.864 17.1809 100.344 17.3365 99.8794 17.5234C99.6712 17.3832 99.495 17.1731 99.3509 16.8929C99.2068 16.5971 99.1347 16.2935 99.1347 15.9821C99.1347 15.5774 99.2308 15.2582 99.423 15.0247C99.6312 14.7756 99.9434 14.5655 100.36 14.3942C100.824 14.223 101.369 14.0984 101.993 14.0206C102.634 13.9428 103.234 13.9038 103.795 13.9038Z" fill="#25334E"/>
<path d="M119.455 18.4107C119.455 17.9281 119.311 17.5778 119.022 17.3599C118.75 17.1264 118.374 17.0096 117.893 17.0096C117.573 17.0096 117.253 17.0485 116.933 17.1264C116.628 17.2042 116.364 17.321 116.14 17.4766V25.5797C115.98 25.6264 115.724 25.6731 115.371 25.7198C115.035 25.7665 114.683 25.7898 114.314 25.7898C113.962 25.7898 113.642 25.7665 113.354 25.7198C113.081 25.6731 112.849 25.5797 112.657 25.4396C112.465 25.2995 112.313 25.1126 112.201 24.8791C112.105 24.63 112.056 24.3109 112.056 23.9217V16.9162C112.056 16.4959 112.145 16.1534 112.321 15.8887C112.513 15.6241 112.769 15.3828 113.089 15.1648C113.634 14.7912 114.314 14.4876 115.131 14.2541C115.964 14.0206 116.885 13.9038 117.893 13.9038C119.703 13.9038 121.096 14.293 122.073 15.0714C123.05 15.8342 123.538 16.9006 123.538 18.2706V25.5797C123.378 25.6264 123.122 25.6731 122.77 25.7198C122.433 25.7665 122.081 25.7898 121.713 25.7898C121.36 25.7898 121.04 25.7665 120.752 25.7198C120.48 25.6731 120.247 25.5797 120.055 25.4396C119.863 25.2995 119.711 25.1126 119.599 24.8791C119.503 24.63 119.455 24.3109 119.455 23.9217V18.4107Z" fill="#25334E"/>
<path d="M125.34 23.7115C125.34 23.0577 125.548 22.5128 125.965 22.0769C126.381 21.641 126.949 21.4231 127.67 21.4231C128.391 21.4231 128.959 21.641 129.375 22.0769C129.792 22.5128 130 23.0577 130 23.7115C130 24.3654 129.792 24.9103 129.375 25.3462C128.959 25.7821 128.391 26 127.67 26C126.949 26 126.381 25.7821 125.965 25.3462C125.548 24.9103 125.34 24.3654 125.34 23.7115Z" fill="#25334E"/>
<path d="M0 17C0 12.2521 0 9.87811 0.667788 7.96968C1.86388 4.55144 4.55144 1.86388 7.96968 0.667788C9.87811 0 12.2521 0 17 0C21.7479 0 24.1219 0 26.0303 0.667788C29.4486 1.86388 32.1361 4.55144 33.3322 7.96968C34 9.87811 34 12.2521 34 17C34 21.7479 34 24.1219 33.3322 26.0303C32.1361 29.4486 29.4486 32.1361 26.0303 33.3322C24.1219 34 21.7479 34 17 34C12.2521 34 9.87811 34 7.96968 33.3322C4.55144 32.1361 1.86388 29.4486 0.667788 26.0303C0 24.1219 0 21.7479 0 17Z" fill="#FF7D56"/>
<path d="M24.7239 17.3106H21.3041C22.5715 17.3106 23.5803 16.3131 23.5803 15.1079V10.1693C23.5803 8.96396 22.5715 8 21.3041 8H16.1114C14.8441 8 13.7906 8.96389 13.7906 10.1693V15.1078C13.7906 15.5553 13.9441 15.9717 14.1877 16.3185L14.0956 16.2256C13.6629 15.8141 13.0884 15.5874 12.4731 15.5874C11.8576 15.5874 11.2819 15.8141 10.8491 16.2256L7.67196 19.2479C6.77579 20.1002 6.77613 21.4871 7.6723 22.3394L10.8503 25.3618C11.2831 25.7733 11.8604 26 12.4757 26C13.0911 26 13.6684 25.7733 14.1011 25.3618L17.2679 22.3394C17.5968 22.0267 17.8137 21.6419 17.8808 21.2378V23.7807C17.8808 24.9859 18.9343 25.9834 20.2016 25.9834H24.7238C25.9912 25.9834 27 24.9859 27 23.7807V19.4799C27.0001 18.2745 25.9912 17.3106 24.7239 17.3106ZM18.9956 9.81823C19.7716 9.81823 20.5032 10.1036 21.0558 10.6219C21.2667 10.8197 21.2691 11.1426 21.0611 11.3433C20.8529 11.5439 20.5133 11.5462 20.3024 11.3484C19.9519 11.0197 19.4878 10.8386 18.9956 10.8386C17.9693 10.8386 17.1344 11.6326 17.1344 12.6086C17.1344 13.5846 17.9693 14.3786 18.9956 14.3786C19.5394 14.3786 20.0546 14.1532 20.409 13.7601C20.6018 13.5463 20.9405 13.5215 21.1653 13.705C21.3902 13.8883 21.4163 14.2104 21.2234 14.4242C20.665 15.0438 19.853 15.399 18.9955 15.399C17.3777 15.399 16.0615 14.1472 16.0615 12.6086C16.0616 11.07 17.3778 9.81823 18.9956 9.81823ZM15.9022 20.9704C15.8057 21.2367 15.5005 21.3782 15.2203 21.2865L14.4294 21.0274L12.7308 22.6428L12.9963 23.4105C13.0889 23.6782 12.9359 23.9666 12.6544 24.0546C12.5987 24.072 12.5422 24.0803 12.4867 24.0803C12.2612 24.0803 12.0514 23.9441 11.9771 23.7294L10.5266 19.5356C10.4629 19.3515 10.5144 19.1489 10.6595 19.0129C10.8045 18.8767 11.0182 18.8307 11.2108 18.8938L15.5697 20.3218C15.8499 20.4136 15.9987 20.704 15.9022 20.9704ZM17.8808 19.4798V20.3497C17.8137 19.9458 17.5968 19.5608 17.2679 19.248L14.8327 16.9351C15.1974 17.1668 15.6409 17.3106 16.1114 17.3106H20.2017C18.9343 17.3106 17.8808 18.2745 17.8808 19.4798ZM22.8883 24.134H20.9205C20.6243 24.134 20.3618 23.8889 20.3618 23.6071V19.6534C20.3618 19.3716 20.6243 19.1599 20.9205 19.1599H22.3317C23.2044 19.1599 23.9144 19.8359 23.9144 20.6771C23.9144 20.9026 23.8614 21.1167 23.7627 21.3159C24.1893 21.5903 24.4711 22.0657 24.4711 22.5973C24.471 23.4411 23.761 24.134 22.8883 24.134Z" fill="white"/>
</svg>
