<svg width="461" height="476" fill="none" xmlns="http://www.w3.org/2000/svg"><path opacity=".2" clip-rule="evenodd" d="M411.557 133.488c24.351 37.967 21.575 84.46 20.055 128.067-1.419 40.684-4.971 82.487-28.477 113.515-23.047 30.421-61.506 40.655-97.627 52.941-37.922 12.898-77.898 37.186-116.55 19.904-38.446-17.191-44.64-70.2-71.421-103.953-29.173-36.769-83.452-56.503-91.913-101.905-8.573-45.993 25.51-84.199 50.454-120.541 25.134-36.62 50.621-76.96 93.37-89.002 42.644-12.014 88.654 7.655 131.682 25.6 41.568 17.337 85.501 36.511 110.427 75.374z" stroke="#FF7D56" stroke-width="2"/></svg>