<svg width="30" height="29" fill="none" xmlns="http://www.w3.org/2000/svg"><path d="M15.346 11.128c-2.78-3.142-5.376-6.074-9.89-6.03-3.121-.071-4.403 2.863-4.205 5.531.248 3.82 4.638 7.18 7.28 9.322 2.152 1.755 5.73 5.461 8.731 5.564 6.879.1 8.832-14.805 8.148-19.286-.415-2.998-2.808-4.69-5.526-4.22-3.716.607-5.218 6.58-5.864 9.475-.256.975 1.265 1.345 1.52.37.559-2.742 1.423-5.305 3.173-7.459 2.975-1.444 4.713-.744 5.217 2.1.736 2.265-.063 5.07-.51 7.264-1.014 4.418-3.575 12.23-9.245 8.437-3.125-2.013-6.17-4.695-8.702-7.386-2.683-2.78-4.4-9.186 1.676-8.223 3.098.466 5.146 3.286 7.153 5.469.5.902 1.633-.179 1.044-.928z" fill="#FF7D56"/></svg>