<svg width="67" height="42" fill="none" xmlns="http://www.w3.org/2000/svg"><path d="M9.585 19.364c.329-.177.627-.354.926-.56.09.826.27 1.652.538 2.478 1.613 4.927 6.633 8.143 11.174 5.281.06.295.09.59.179.885 1.255 6.049 6.543 10.77 12.608 6.963 1.255-.796 2.33-1.77 3.286-2.862a36.3 36.3 0 00.926 3.334c1.584 4.574 6.842 7.849 11.503 5.193 1.792-1.032 2.928-2.567 3.675-4.366 1.314 2.3 3.047 4.396 5.228 5.546 1.255.679 2.6 1.18 3.794.177 1.434-1.21 2.33-3.629 2.838-5.34 1.345-4.75.598-9.677-.209-14.457-.179-1.15-2.001-.856-1.822.295.597 3.57 1.225 7.2.807 10.828-.24 2.036-.777 4.101-1.823 5.901-.568.974-.807 1.623-2.24 1.24-1.166-.325-2.212-1.535-2.958-2.45a22.934 22.934 0 01-2.839-4.307c.628-3.128.448-6.61.389-9.412-.06-2.272.388-5.783-.837-7.79-.896-1.445-2.718-1.327-3.465.148-.09.148-.3.738-.33.944A27.856 27.856 0 0052.1 30.487c.299.885.657 1.8 1.076 2.715-.956 3.6-3.257 6.963-7.56 5.753-4.242-1.21-5.108-5.753-5.676-9.589 2.45-3.894 3.645-8.733 4.422-13.011.389-2.095 1.225-5.783-1.314-6.963-2.66-1.269-5.408 4.484-5.528 6.255-.328 4.337-.328 8.998.359 13.454-1.494 2.242-3.496 4.1-6.035 4.72-5.318 1.269-7.23-4.071-7.858-8.644 4.392-4.072 6.902-10.563 7.977-16.257.359-1.948.27-4.514-1.971-5.252-2.002-.65-3.735.856-5.02 2.213-1.374 2.98-3.704 12.628-2.987 18.764-.658.473-1.405.856-2.151 1.063-4.81 1.357-7.5-4.721-7.53-8.468.778-.767 1.495-1.623 2.182-2.449 1.703-2.036 3.555-4.278 4.6-6.756.568-1.387 1.196-3.866 0-5.134-1.254-1.357-3.973 1.416-4.003 1.564a.53.53 0 00-.15.206c-2.15 3.747-4.271 7.79-4.48 11.979-.688.56-1.405 1.032-2.152 1.328-2.031.796-3.794-.502-5.079-2.007-1.434-1.682-1.583-3.481-.986-5.517.957-3.216 2.958-6.167 4.691-8.999C7.524.452 6.03-.61 5.402.422 3.042 4.287-1.26 9.864.353 14.702c1.225 3.718 5.498 6.639 9.232 4.662zm43.142-2.124c0-.06.179-.354.209-.472.298.649.448 1.328.448 2.036.06.56.09 1.12.12 1.681.089 1.18.119 2.36.149 3.54.03 1.83.06 3.66-.06 5.489a28.008 28.008 0 01-.867-12.274zm-13.534.118a9.2 9.2 0 01.717-3.098c.388-.915.926-1.859 1.493-2.301 1.763-1.328 1.464 1.475 1.285 2.684a51.533 51.533 0 01-1.733 7.583 31.233 31.233 0 01-1.553 4.013c-.24-2.95-.329-5.901-.21-8.881zm-15.566 4.425c-.18-4.927 2.6-14.575 2.689-14.693.806-.885 2.987-3.127 3.884-.265.299.914-.21 2.154-.448 3.068a48.53 48.53 0 01-1.763 5.459c-.896 2.3-2.33 5.428-4.302 7.7-.03-.442-.03-.855-.06-1.268zm-7.23-15.99c.06-.09 1.075-1.328 1.404-.974.388.442-.299 2.212-.508 2.684-.538 1.27-1.404 2.45-2.21 3.57-.748 1.004-1.584 2.243-2.51 3.364.657-3.069 2.27-5.96 3.824-8.645z" fill="#6ED2EF"/></svg>