<svg width="413" height="423" fill="none" xmlns="http://www.w3.org/2000/svg"><path opacity=".3" clip-rule="evenodd" d="M374.569 187.883c6.75 35.96-9.492 70.072-23.91 102.396-13.453 30.157-28.851 60.506-55.97 76.679-26.59 15.856-58.622 11.843-89.521 10.083-32.439-1.848-69.891 4.244-93.691-20.518-23.672-24.63-12.19-66.371-22.05-99.903-10.742-36.527-45.544-67.889-38.084-104.602 7.557-37.191 44.814-55.54 74.633-75.271 30.046-19.881 61.49-42.453 97.299-38.493 35.72 3.95 64.326 32.747 91.214 59.339 25.976 25.689 53.171 53.481 60.08 90.29z" stroke="#FDCF3F" stroke-width="2"/></svg>