<svg width="601" height="616" fill="none" xmlns="http://www.w3.org/2000/svg"><path opacity=".2" clip-rule="evenodd" d="M545.537 273.182c9.848 52.462-13.847 102.227-34.883 149.384-19.625 43.997-42.089 88.273-81.654 111.867-38.79 23.133-85.522 17.277-130.6 14.71-47.326-2.695-101.963 6.192-136.685-29.933-34.536-35.932-17.785-96.828-32.17-145.748-15.669-53.288-66.443-99.043-55.56-152.602 11.026-54.258 65.38-81.028 108.883-109.813 43.834-29.004 89.706-61.933 141.947-56.156 52.113 5.763 93.845 47.773 133.072 86.568 37.896 37.479 77.57 78.024 87.65 131.723z" stroke="#FF7D56" stroke-width="2"/></svg>