<svg width="24" height="24" fill="none" xmlns="http://www.w3.org/2000/svg"><path d="M12.342 8.95c-2.237-2.527-4.324-4.886-7.954-4.851-2.51-.057-3.541 2.304-3.382 4.45.2 3.072 3.73 5.773 5.855 7.496 1.73 1.412 4.608 4.392 7.022 4.475 5.532.08 7.102-11.907 6.553-15.51-.335-2.412-2.259-3.772-4.445-3.395-2.988.488-4.196 5.293-4.716 7.62-.206.785 1.018 1.082 1.223.298.45-2.205 1.144-4.267 2.552-5.998 2.392-1.162 3.79-.6 4.195 1.689.592 1.821-.05 4.077-.41 5.84-.815 3.554-2.875 9.837-7.435 6.786-2.513-1.619-4.963-3.776-6.998-5.94C2.243 9.675.862 4.523 5.749 5.297c2.492.375 4.139 2.643 5.753 4.398.402.726 1.313-.143.84-.746z" fill="#FF7D56"/></svg>